<?xml version="1.0" standalone="no"?>
<!DOCTYPE svg PUBLIC "-//W3C//DTD SVG 20010904//EN"
 "http://www.w3.org/TR/2001/REC-SVG-20010904/DTD/svg10.dtd">
<svg version="1.0" xmlns="http://www.w3.org/2000/svg"
 width="300.000000pt" height="300.000000pt" viewBox="0 0 300.000000 300.000000"
 preserveAspectRatio="xMidYMid meet">
<metadata>
Created by potrace 1.11, written by Peter Selinger 2001-2013
</metadata>
<g transform="translate(0.000000,300.000000) scale(0.100000,-0.100000)"
fill="#000000" stroke="none">
<path d="M363 1463 l2 -758 90 -1 c50 -1 97 0 105 2 13 3 15 31 14 178 l-1
175 77 76 76 76 26 -58 c14 -32 60 -141 103 -243 43 -102 81 -190 86 -196 11
-13 215 -12 212 2 -1 5 -61 148 -133 318 -139 329 -148 355 -133 365 6 3 49
50 96 103 l87 98 13 -28 c8 -15 94 -214 192 -442 99 -228 183 -418 188 -421 5
-4 25 -6 44 -5 l36 1 83 200 c46 110 88 209 93 220 6 11 31 72 57 135 26 63
50 118 53 122 4 4 72 -146 152 -335 l146 -342 41 -1 41 -1 37 86 c20 47 47
109 59 136 12 28 64 147 115 265 51 118 101 235 113 260 31 69 117 271 117
275 0 2 -49 4 -108 4 l-108 -1 -59 -136 c-82 -192 -94 -220 -120 -277 -12 -27
-35 -83 -51 -122 -16 -40 -32 -73 -35 -73 -3 0 -63 136 -132 303 l-125 302
-78 0 -77 0 -99 -235 c-55 -129 -111 -265 -126 -303 -15 -37 -29 -67 -32 -67
-3 0 -18 30 -34 68 -16 37 -35 81 -42 97 -8 17 -54 122 -102 235 l-89 205
-142 3 -141 3 -185 -186 c-102 -102 -186 -185 -188 -185 -2 0 -3 194 -3 430
l1 430 -107 0 -107 0 2 -757z"/>
</g>
</svg>
